<svg width="28" height="28" viewBox="0 0 28 28" fill="none" xmlns="http://www.w3.org/2000/svg">
<path d="M12.6665 1.38025C11.8821 0.926468 10.9713 0.666748 9.99984 0.666748C7.05432 0.666748 4.6665 3.05456 4.6665 6.00008V8.36571C3.53177 8.822 2.60174 9.53055 1.92152 10.4659C1.05636 11.6554 0.666504 13.113 0.666504 14.6667C0.666504 16.7486 1.72689 18.5809 3.33317 19.6561V21.3334C3.33317 24.6471 6.01946 27.3334 9.33317 27.3334C10.5666 27.3334 11.7132 26.9613 12.6665 26.323V21.3334C12.6665 19.5561 12.2265 18.4197 11.5201 17.6545C10.7964 16.8705 9.62146 16.2887 7.78064 15.9819L8.21904 13.3515C9.95453 13.6407 11.4742 14.1831 12.6665 15.1029V1.38025ZM15.3332 1.38025V15.1029C16.5254 14.1831 18.0452 13.6407 19.7806 13.3515L20.219 15.9819C18.3782 16.2887 17.2033 16.8705 16.4796 17.6545C15.7732 18.4197 15.3332 19.5561 15.3332 21.3334V26.323C16.2865 26.9613 17.433 27.3334 18.6665 27.3334C21.9802 27.3334 24.6665 24.6471 24.6665 21.3334V19.6561C26.2728 18.5809 27.3332 16.7486 27.3332 14.6667C27.3332 13.113 26.9433 11.6554 26.0781 10.4659C25.398 9.53055 24.468 8.822 23.3332 8.36571V6.00008C23.3332 3.05456 20.9453 0.666748 17.9998 0.666748C17.0284 0.666748 16.1176 0.926468 15.3332 1.38025Z" fill="#797979"/>
</svg>
