<svg width="28" height="28" viewBox="0 0 28 28" fill="none" xmlns="http://www.w3.org/2000/svg">
<path d="M12.6667 1.38025C11.8823 0.926468 10.9715 0.666748 10.0001 0.666748C7.05456 0.666748 4.66675 3.05456 4.66675 6.00008V8.36571C3.53201 8.822 2.60199 9.53055 1.92176 10.4659C1.0566 11.6554 0.666748 13.113 0.666748 14.6667C0.666748 16.7486 1.72713 18.5809 3.33341 19.6561V21.3334C3.33341 24.6471 6.01971 27.3334 9.33341 27.3334C10.5668 27.3334 11.7134 26.9613 12.6667 26.323V21.3334C12.6667 19.5561 12.2267 18.4197 11.5203 17.6545C10.7967 16.8705 9.62171 16.2887 7.78088 15.9819L8.21928 13.3515C9.95477 13.6407 11.4745 14.1831 12.6667 15.1029V1.38025ZM15.3334 1.38025V15.1029C16.5257 14.1831 18.0454 13.6407 19.7809 13.3515L20.2193 15.9819C18.3785 16.2887 17.2035 16.8705 16.4798 17.6545C15.7734 18.4197 15.3334 19.5561 15.3334 21.3334V26.323C16.2867 26.9613 17.4333 27.3334 18.6667 27.3334C21.9805 27.3334 24.6667 24.6471 24.6667 21.3334V19.6561C26.273 18.5809 27.3334 16.7486 27.3334 14.6667C27.3334 13.113 26.9435 11.6554 26.0783 10.4659C25.3982 9.53055 24.4682 8.822 23.3334 8.36571V6.00008C23.3334 3.05456 20.9455 0.666748 18.0001 0.666748C17.0286 0.666748 16.1178 0.926468 15.3334 1.38025Z" fill="#5124FF"/>
</svg>
