<svg width="16" height="17" viewBox="0 0 16 17" fill="none" xmlns="http://www.w3.org/2000/svg">
<path d="M2.16667 8.41667C2.16667 8.67783 2.55084 9.132 3.44206 9.57758C4.59504 10.1541 6.23064 10.5 8 10.5C9.76933 10.5 11.4049 10.1541 12.5579 9.57758C13.4492 9.132 13.8333 8.67783 13.8333 8.41667V6.60725C12.4583 7.45683 10.3561 8 8 8C5.64394 8 3.54163 7.45683 2.16667 6.60725V8.41667ZM13.8333 10.7739C12.4583 11.6235 10.3561 12.1667 8 12.1667C5.64394 12.1667 3.54163 11.6235 2.16667 10.7739V12.5833C2.16667 12.8445 2.55084 13.2987 3.44206 13.7443C4.59504 14.3208 6.23064 14.6667 8 14.6667C9.76933 14.6667 11.4049 14.3208 12.5579 13.7443C13.4492 13.2987 13.8333 12.8445 13.8333 12.5833V10.7739ZM0.5 12.5833V4.25C0.5 2.17893 3.85787 0.5 8 0.5C12.1422 0.5 15.5 2.17893 15.5 4.25V12.5833C15.5 14.6544 12.1422 16.3333 8 16.3333C3.85787 16.3333 0.5 14.6544 0.5 12.5833ZM8 6.33333C9.76933 6.33333 11.4049 5.98743 12.5579 5.41094C13.4492 4.96533 13.8333 4.51118 13.8333 4.25C13.8333 3.98882 13.4492 3.53467 12.5579 3.08906C11.4049 2.51257 9.76933 2.16667 8 2.16667C6.23064 2.16667 4.59504 2.51257 3.44206 3.08906C2.55084 3.53467 2.16667 3.98882 2.16667 4.25C2.16667 4.51118 2.55084 4.96533 3.44206 5.41094C4.59504 5.98743 6.23064 6.33333 8 6.33333Z" fill="#9290A7"/>
</svg>
