<svg width="18" height="18" viewBox="0 0 18 18" fill="none" xmlns="http://www.w3.org/2000/svg">
<path d="M8.99984 17.3332C4.39746 17.3332 0.666504 13.6022 0.666504 8.99984C0.666504 4.39746 4.39746 0.666504 8.99984 0.666504C13.6022 0.666504 17.3332 4.39746 17.3332 8.99984C17.3332 13.6022 13.6022 17.3332 8.99984 17.3332ZM7.09152 15.3893C6.28936 13.6881 5.7976 11.8117 5.68926 9.83317H2.38475C2.71484 12.4803 4.59683 14.6454 7.09152 15.3893ZM7.35875 9.83317C7.48409 11.8655 8.06467 13.7746 8.99984 15.4598C9.935 13.7746 10.5156 11.8655 10.6409 9.83317H7.35875ZM15.6149 9.83317H12.3104C12.2021 11.8117 11.7103 13.6881 10.9082 15.3893C13.4028 14.6454 15.2848 12.4803 15.6149 9.83317ZM2.38475 8.1665H5.68926C5.7976 6.18798 6.28936 4.31156 7.09152 2.6103C4.59683 3.35428 2.71484 5.51942 2.38475 8.1665ZM7.35875 8.1665H10.6409C10.5156 6.13419 9.935 4.22505 8.99984 2.53983C8.06467 4.22505 7.48409 6.13419 7.35875 8.1665ZM10.9082 2.6103C11.7103 4.31156 12.2021 6.18798 12.3104 8.1665H15.6149C15.2848 5.51942 13.4028 3.35428 10.9082 2.6103Z" fill="#9290A7"/>
</svg>
