<svg width="16" height="18" viewBox="0 0 16 18" fill="none" xmlns="http://www.w3.org/2000/svg">
<path d="M13.8333 7.33317H14.6667C15.1269 7.33317 15.5 7.70625 15.5 8.1665V16.4998C15.5 16.9601 15.1269 17.3332 14.6667 17.3332H1.33333C0.8731 17.3332 0.5 16.9601 0.5 16.4998V8.1665C0.5 7.70625 0.8731 7.33317 1.33333 7.33317H2.16667V6.49984C2.16667 3.27818 4.77834 0.666504 8 0.666504C11.2217 0.666504 13.8333 3.27818 13.8333 6.49984V7.33317ZM2.16667 8.99984V15.6665H13.8333V8.99984H2.16667ZM7.16667 10.6665H8.83333V13.9998H7.16667V10.6665ZM12.1667 7.33317V6.49984C12.1667 4.19865 10.3012 2.33317 8 2.33317C5.69882 2.33317 3.83333 4.19865 3.83333 6.49984V7.33317H12.1667Z" fill="#9290A7"/>
</svg>
