<svg width="18" height="17" viewBox="0 0 18 17" fill="none" xmlns="http://www.w3.org/2000/svg">
<path d="M4.37863 13.8333L0.666504 16.75V1.33333C0.666504 0.8731 1.0396 0.5 1.49984 0.5H16.4998C16.9601 0.5 17.3332 0.8731 17.3332 1.33333V13C17.3332 13.4602 16.9601 13.8333 16.4998 13.8333H4.37863ZM3.80219 12.1667H15.6665V2.16667H2.33317V13.3209L3.80219 12.1667ZM4.83317 6.33333H6.49984C6.49984 7.71408 7.61909 8.83333 8.99984 8.83333C10.3806 8.83333 11.4998 7.71408 11.4998 6.33333H13.1665C13.1665 8.6345 11.301 10.5 8.99984 10.5C6.69865 10.5 4.83317 8.6345 4.83317 6.33333Z" fill="#9290A7"/>
</svg>
