<svg width="18" height="18" viewBox="0 0 18 18" fill="none" xmlns="http://www.w3.org/2000/svg">
<path d="M7.33317 4.83317C7.33317 8.05484 9.94484 10.6665 13.1665 10.6665C14.7985 10.6665 16.274 9.99625 17.3328 8.91609C17.3332 8.944 17.3332 8.97192 17.3332 8.99984C17.3332 13.6022 13.6022 17.3332 8.99984 17.3332C4.39746 17.3332 0.666504 13.6022 0.666504 8.99984C0.666504 4.39746 4.39746 0.666504 8.99984 0.666504C9.02775 0.666504 9.05567 0.666504 9.08359 0.666912C8.00342 1.72565 7.33317 3.20115 7.33317 4.83317ZM2.33317 8.99984C2.33317 12.6818 5.31794 15.6665 8.99984 15.6665C11.5484 15.6665 13.763 14.2364 14.8848 12.1349C14.3286 12.2654 13.7528 12.3332 13.1665 12.3332C9.02434 12.3332 5.6665 8.97534 5.6665 4.83317C5.6665 4.2469 5.73428 3.67106 5.86475 3.11484C3.76326 4.2367 2.33317 6.45125 2.33317 8.99984Z" fill="#9290A7"/>
</svg>
