<svg width="18" height="17" viewBox="0 0 18 17" fill="none" xmlns="http://www.w3.org/2000/svg">
<path d="M4.37863 13.8333L0.666504 16.75V1.33333C0.666504 0.8731 1.0396 0.5 1.49984 0.5H16.4998C16.9601 0.5 17.3332 0.8731 17.3332 1.33333V13C17.3332 13.4602 16.9601 13.8333 16.4998 13.8333H4.37863ZM8.1665 9.66667V11.3333H9.83317V9.66667H8.1665ZM6.13926 5.34455L7.77384 5.67147C7.88784 5.09852 8.39342 4.66667 8.99984 4.66667C9.69017 4.66667 10.2498 5.22631 10.2498 5.91667C10.2498 6.607 9.69017 7.16667 8.99984 7.16667H8.1665V8.83333H8.99984C10.6107 8.83333 11.9165 7.5275 11.9165 5.91667C11.9165 4.30583 10.6107 3 8.99984 3C7.58484 3 6.40515 4.00766 6.13926 5.34455Z" fill="#9290A7"/>
</svg>
