<svg width="18" height="18" viewBox="0 0 18 18" fill="none" xmlns="http://www.w3.org/2000/svg">
<path d="M8.99984 17.3332C4.39746 17.3332 0.666504 13.6022 0.666504 8.99984C0.666504 4.39746 4.39746 0.666504 8.99984 0.666504C13.6022 0.666504 17.3332 4.39746 17.3332 8.99984C17.3332 13.6022 13.6022 17.3332 8.99984 17.3332ZM8.1665 11.4998V13.1665H9.83317V11.4998H8.1665ZM9.83317 10.1291C11.0379 9.7705 11.9165 8.65442 11.9165 7.33317C11.9165 5.72234 10.6107 4.4165 8.99984 4.4165C7.58484 4.4165 6.40515 5.42416 6.13926 6.76105L7.77384 7.08798C7.88784 6.51503 8.39342 6.08317 8.99984 6.08317C9.69017 6.08317 10.2498 6.64281 10.2498 7.33317C10.2498 8.0235 9.69017 8.58317 8.99984 8.58317C8.53959 8.58317 8.1665 8.95625 8.1665 9.4165V10.6665H9.83317V10.1291Z" fill="#9290A7"/>
</svg>
