<svg width="16" height="19" viewBox="0 0 16 19" fill="none" xmlns="http://www.w3.org/2000/svg">
<path d="M5.5 5.00016H10.5C10.5 3.61945 9.38075 2.50016 8 2.50016C6.61925 2.50016 5.5 3.61945 5.5 5.00016ZM3.83333 5.00016C3.83333 2.69898 5.69882 0.833496 8 0.833496C10.3012 0.833496 12.1667 2.69898 12.1667 5.00016H14.6667C15.1269 5.00016 15.5 5.37326 15.5 5.8335V17.5002C15.5 17.9604 15.1269 18.3335 14.6667 18.3335H1.33333C0.8731 18.3335 0.5 17.9604 0.5 17.5002V5.8335C0.5 5.37326 0.8731 5.00016 1.33333 5.00016H3.83333ZM2.16667 6.66683V16.6668H13.8333V6.66683H2.16667ZM5.5 8.3335C5.5 9.71425 6.61925 10.8335 8 10.8335C9.38075 10.8335 10.5 9.71425 10.5 8.3335H12.1667C12.1667 10.6347 10.3012 12.5002 8 12.5002C5.69882 12.5002 3.83333 10.6347 3.83333 8.3335H5.5Z" fill="#9290A7"/>
</svg>
