<svg width="20" height="14" viewBox="0 0 20 14" fill="none" xmlns="http://www.w3.org/2000/svg">
<path d="M15.3035 12.3032C18.2324 9.37422 18.2324 4.62552 15.3035 1.69658L16.482 0.518066C20.0617 4.09788 20.0617 9.90188 16.482 13.4817L15.3035 12.3032ZM4.69686 1.69658C1.76793 4.62552 1.76793 9.37422 4.69686 12.3032L3.51835 13.4817C-0.0614563 9.90188 -0.0614563 4.09788 3.51835 0.518066L4.69686 1.69658ZM12.9464 9.94605C14.5737 8.31888 14.5737 5.68072 12.9464 4.05351L14.1249 2.875C16.403 5.15306 16.403 8.84655 14.1249 11.1245L12.9464 9.94605ZM7.05389 4.05351C5.42669 5.68072 5.42669 8.31888 7.05389 9.94605L5.87537 11.1245C3.59731 8.84655 3.59731 5.15306 5.87537 2.875L7.05389 4.05351ZM10.0002 8.66655C10.9207 8.66655 11.6668 7.9203 11.6668 6.99988C11.6668 6.07938 10.9207 5.33322 10.0002 5.33322C9.07966 5.33322 8.3335 6.07938 8.3335 6.99988C8.3335 7.9203 9.07966 8.66655 10.0002 8.66655Z" fill="#9290A7"/>
</svg>
